<?xml version="1.0" standalone="no"?><!DOCTYPE svg PUBLIC "-//W3C//DTD SVG 1.1//EN" "http://www.w3.org/Graphics/SVG/1.1/DTD/svg11.dtd"><svg width="64" height="64" viewBox="0 0 64 64" version="1.1" xmlns="http://www.w3.org/2000/svg" xmlns:xlink="http://www.w3.org/1999/xlink"><defs><style type="text/css"><![CDATA[

]]></style></defs><g class="transform-group"><g transform="scale(0.0625, 0.0625)"><path d="M726.016 768q34.005333 0 59.008 25.984t25.002667 59.989333-25.002667 59.008-59.008 25.002667-59.989333-25.002667-25.984-59.008 25.984-59.989333 59.989333-25.984zM41.984 86.016l139.989333 0 40.021333 84.010667 632.021333 0q18.005333 0 29.994667 13.013333t11.989333 31.018667q0 9.984-6.016 20.010667l-152.021333 276.010667q-24.021333 43.989333-73.984 43.989333l-317.994667 0-38.016 70.016-2.005333 6.016q0 9.984 9.984 9.984l493.994667 0 0 86.016-512 0q-34.005333 0-59.008-25.984t-25.002667-59.989333q0-20.010667 9.984-40.021333l57.984-105.984-153.984-324.010667-86.016 0 0-84.010667zM297.984 768q34.005333 0 59.989333 25.984t25.984 59.989333-25.984 59.008-59.989333 25.002667-59.008-25.002667-25.002667-59.008 25.002667-59.989333 59.008-25.984z" fill="#fff"></path></g></g></svg>