<?xml version="1.0" standalone="no"?><!DOCTYPE svg PUBLIC "-//W3C//DTD SVG 1.1//EN" "http://www.w3.org/Graphics/SVG/1.1/DTD/svg11.dtd"><svg width="64" height="64" viewBox="0 0 64 64" version="1.1" xmlns="http://www.w3.org/2000/svg" xmlns:xlink="http://www.w3.org/1999/xlink"><defs><style type="text/css"><![CDATA[

]]></style></defs><g class="transform-group"><g transform="scale(0.0625, 0.0625)"><path d="M406.016 598.016q80 0 136.021333-56.021333t56.021333-136.021333-56.021333-136.021333-136.021333-56.021333-136.021333 56.021333-56.021333 136.021333 56.021333 136.021333 136.021333 56.021333zM662.016 598.016l212.010667 212.010667-64 64-212.010667-212.010667 0-34.005333-11.989333-11.989333q-75.989333 66.005333-180.010667 66.005333-116.010667 0-196.992-80t-80.981333-196.010667 80.981333-196.992 196.992-80.981333 196.010667 80.981333 80 196.992q0 104.021333-66.005333 180.010667l11.989333 11.989333 34.005333 0z" fill="#fff"></path></g></g></svg>