<?xml version="1.0" standalone="no"?><!DOCTYPE svg PUBLIC "-//W3C//DTD SVG 1.1//EN" "http://www.w3.org/Graphics/SVG/1.1/DTD/svg11.dtd"><svg width="32" height="32" viewBox="0 0 32 32" version="1.1" xmlns="http://www.w3.org/2000/svg" xmlns:xlink="http://www.w3.org/1999/xlink"><defs><style type="text/css"><![CDATA[
@font-face { font-family: ifont; src: url("//at.alicdn.com/t/font_1442373896_4754455.eot?#iefix") format("embedded-opentype"), url("//at.alicdn.com/t/font_1442373896_4754455.woff") format("woff"), url("//at.alicdn.com/t/font_1442373896_4754455.ttf") format("truetype"), url("//at.alicdn.com/t/font_1442373896_4754455.svg#ifont") format("svg"); }

]]></style></defs><g class="transform-group"><g transform="scale(0.03125, 0.03125)"><path d="M957.631942 511.051395c0 246.167562-200.440102 447.292256-448.914196 446.545242-179.728384-0.624217-341.115028-109.296265-410.174893-272.991488-21.833261-52.965306-35.245735-111.855554-35.245735-173.552731 0-246.292406 200.500477-447.042569 448.914196-446.294532C758.878249 65.442478 957.631942 265.445628 957.631942 511.051395L957.631942 511.051395zM726.501864 461.269595 726.501864 461.269595c-181.538613 0-198.75574 0-215.97389 0-17.717524 0-34.562167 0-215.349673 0-14.100136 0-26.076912 5.988388-35.933397 14.473643-8.484232 9.106402-14.100136 21.460778-14.100136 35.308157 0 14.036691 5.615904 26.076912 14.100136 35.184337 9.856485 8.858762 21.833261 14.848173 35.933397 14.848173 180.787506 0 197.632149 0 215.349673 0 17.217127 0 34.434254 0 215.97389 0 13.349029 0 26.074865-5.989411 35.244712-14.848173 8.79634-9.107425 14.784728-21.147646 14.784728-35.184337 0-13.848403-5.989411-26.201755-14.784728-35.308157C752.576729 467.257983 739.850893 461.269595 726.501864 461.269595L726.501864 461.269595zM511.899204 163.511028 511.899204 163.511028c-193.514365-0.375553-349.22473 155.523099-349.22473 347.540368 0 48.598858 9.856485 93.7635 27.447119 135.373177 53.589522 127.388319 178.357154 211.357755 318.90826 212.105792 141.361565 0.62524 267.502473-83.969437 321.777611-212.105792 17.58961-41.608653 27.073612-86.774319 27.073612-135.373177 0-48.409546-9.484002-93.576235-27.073612-135.49802C777.217942 248.539586 652.137179 164.196643 511.899204 163.511028L511.899204 163.511028z" fill="#6AC751"></path></g></g></svg>